<svg width="60" height="38" viewBox="0 0 60 38" fill="none" xmlns="http://www.w3.org/2000/svg">
<path d="M26.3305 0.519998H34.3305V37H26.1705V11.72L18.9705 37H13.0905L5.33047 13.08V24.2C5.33047 27.1333 5.41047 29.48 5.57047 31.24C5.75714 32.9733 6.13047 34.4933 6.69047 35.8V37.04L0.690469 37V35.8C1.27714 34.4133 1.69047 32.8133 1.93047 31C2.17047 29.16 2.29047 26.8933 2.29047 24.2V3.72L1.25047 0.519998H9.21047L18.3305 28.52L26.3305 0.519998ZM59.1511 30.68L58.0711 37H37.5911V0.519998H45.7911V33.96C48.8844 33.96 51.2711 33.76 52.9511 33.36C54.6578 32.9333 55.9778 32.04 56.9111 30.68H59.1511Z" fill="#03045E"/>
</svg>
